<?xml version='1.0' encoding='utf-8'?>
<svg xmlns="http://www.w3.org/2000/svg" version="1.1" width="720px" height="1358px" viewBox="0 0 720 1358"> <g id="layer1"> <g> <g style="fill:rgb(0,0,0); fill-opacity:1.0; stroke-linejoin: miter"> <path d="M358.3193,345.45435C353.80545,350.44843,353.32523,351.40887,354.57376,352.3692C356.3985,353.7138,357.551,362.83752,356.49454,366.87122C355.9183,368.98407,355.05396,369.84845,353.13315,370.0406C351.11633,370.32867,350.5401,370.9049,350.5401,372.7296C350.5401,374.36237,349.48364,375.7069,346.69852,377.43555C344.58563,378.78015,342.7609,379.83655,342.47278,379.83655C342.28067,379.83655,337.4787,382.52563,331.71634,385.79102C319.61533,392.60986,314.52524,395.49103,300.31137,403.2702C294.64505,406.43958,290.03516,409.51276,290.03516,410.08905C290.03516,410.76135,291.57178,412.2979,293.3965,413.5465L296.7579,415.85138L296.85394,447.06427C296.94998,464.25543,297.04602,479.14148,297.04602,480.198C297.04602,481.2544,296.94998,487.59296,296.85394,494.2198L296.7579,506.32062L294.35693,505.8405L291.95593,505.45642L291.95593,493.16327C291.95593,482.21484,292.148,480.77417,293.68466,480.39008C295.22128,480.00586,295.22128,479.9098,293.68466,479.81378C292.53217,479.71777,291.95593,478.94946,291.95593,477.3167C291.95593,475.58807,291.47574,474.91577,290.03516,474.91577C288.4985,474.91577,288.11435,475.58807,288.11435,477.79694C288.11435,480.00586,287.05792,481.83063,283.69653,484.99988C278.41434,490.1861,278.79852,490.76233,284.27277,485.86432L288.11435,482.40692L288.11435,493.83557L288.11435,505.26434L284.56088,504.97614L280.91138,504.78412L284.46484,505.93652L288.11435,507.089L284.46484,510.83453C280.91138,514.58014,281.87177,514.77216,286.00146,511.12268L288.11435,509.2019L288.11435,513.0435L288.11435,516.8851L281.00742,518.2296C277.0698,518.9979,274.09256,519.28613,274.28464,518.9018C274.95694,517.8455,273.90048,517.9415,270.25098,519.28613C267.36978,520.34247,266.8896,520.15045,265.1609,518.0376C263.5282,516.0206,263.24008,514.292,263.14404,505.8405L263.14404,495.85242L266.12128,498.3495C270.15494,501.80682,271.59555,501.51874,267.75397,497.96527C264.9688,495.56433,264.87277,495.1801,266.50543,495.0841C267.5619,495.0841,269.48267,494.4118,270.8272,493.5475C272.65198,492.49097,272.84406,492.20294,271.30743,492.58704C264.00842,494.3158,263.43216,494.2198,262.85593,492.29895C262.5678,491.14642,261.70346,490.2821,260.8391,490.2821C259.49454,490.2821,259.30246,492.39496,259.30246,507.37714L259.30246,524.47217L256.13315,525.6247C251.33118,527.3534,245.85693,532.6356,245.85693,535.42065C245.85693,538.58997,246.72128,539.6465,250.6589,541.6633C261.99158,547.32965,276.1094,559.4306,280.81534,567.49786L283.6005,572.20386L282.35196,587.6663C281.77573,596.21387,280.81534,609.85144,280.43118,618.01483C279.951,626.1781,279.18268,636.1663,278.70248,640.10394C278.12622,644.0415,277.45395,652.8772,277.0698,659.79205C276.68564,666.6109,275.8213,676.59894,275.14902,681.88116C273.32425,695.0385,269.5787,733.07025,266.98563,764.4753C265.35297,784.4515,264.10446,799.2415,263.14404,810.09406C262.5678,815.66437,261.99158,822.9633,261.70346,826.4207C261.41534,829.87823,260.74307,837.6574,260.26288,843.70795C259.20642,856.0009,257.95792,870.31085,256.4213,889.80695C255.84503,896.9139,254.7886,909.01483,254.0203,916.69794C253.25198,924.38116,252.19553,936.8663,251.6193,944.5494C251.04306,952.2326,250.08267,962.1247,249.60248,966.6386C249.12228,971.1525,248.73813,977.10693,248.73813,979.98816C248.73813,984.21387,248.35394,985.36633,246.43317,986.90295C245.08862,987.95935,241.15097,992.18506,237.59752,996.50696L231.16287,1004.1902L232.02722,1011.105L232.89157,1018.0198L360.91235,1018.30786L488.83713,1018.5L488.83713,1010.2406L488.83713,1001.9812L483.93915,996.603C474.7193,986.5189,474.81534,986.61487,473.08664,972.3049C472.22223,965.102,471.54996,956.1702,471.54996,952.42474C471.54996,948.67914,471.1658,941.3802,470.58954,936.19403C468.57278,915.5456,465.9797,885.8692,463.8668,859.0743C463.29053,851.96735,462.23416,839.5782,461.46585,831.70306C459.64105,812.78314,457.43216,788.48505,456.18362,773.59894C455.60736,766.9722,454.74304,756.79205,454.26285,751.0296C453.78268,745.1712,452.9183,734.41486,452.34204,727.0197C451.76584,719.6247,450.90146,709.4445,450.3252,704.45044C449.46088,695.90283,448.1163,679.5763,447.05988,665.0743C446.77176,661.6168,446.1955,654.5098,445.71536,649.2277C445.13904,643.9455,444.27478,633.5732,443.69852,626.1781C443.12228,618.78314,442.25787,608.603,441.7777,603.60895C441.29752,598.6148,440.62518,590.35547,440.24103,585.36127C439.95297,580.3672,439.47275,575.94946,439.18466,575.56525C438.60843,574.5087,446.57968,562.4079,450.99753,557.50977C455.51135,552.6119,463.48264,546.3692,470.78165,542.2395C476.35196,539.16626,477.88855,536.8613,476.83218,533.59595C476.15988,531.4831,471.45395,527.7376,467.0361,525.72064L463.8668,524.37616L463.67468,507.18506C463.48264,493.93158,463.09848,489.898,462.13812,489.5138C461.46585,489.32178,460.60147,489.99396,460.31332,491.14642C459.25696,495.27612,449.17276,492.68304,440.24103,485.86432C437.35986,483.65533,433.9985,479.04547,434.09448,477.3167C434.19058,475.3,433.90244,474.91577,432.74997,474.91577C431.98166,474.91577,431.21332,475.87616,431.02127,477.02863C430.82916,478.66132,429.9648,479.33356,428.1401,479.52563L425.45096,479.81378L425.45096,449.08112L425.45096,418.25244L429.2926,414.79504C431.40543,412.8742,433.13412,410.76135,433.13412,410.08905C433.13412,409.41675,428.2361,406.24744,422.28165,403.0782C412.38962,397.79596,399.71234,390.1128,383.00153,379.16425C377.81534,375.899,376.4708,374.45837,376.4708,372.63354C376.4708,370.71277,375.99057,370.23267,374.0698,370.23267C371.38068,370.23267,371.38068,370.0406,371.6688,359.18805C371.76483,355.82666,372.3411,352.8495,373.20544,351.88904C374.3579,350.64056,373.97375,349.9682,370.2282,346.89496C367.92325,344.97418,365.8104,342.47717,365.42624,341.42072C365.13812,340.36432,364.56186,339.5,364.1777,339.5C363.79352,339.5,361.2005,342.18903,358.3193,345.45435 Z M312.12424,453.4029L312.12424,471.1703L309.051,472.51483C307.32227,473.187,305.59357,473.57123,305.2094,473.37915C304.82523,473.091,304.5371,463.67914,304.44107,452.2505L304.44107,431.60193L308.28265,433.61877L312.12424,435.5395L312.12424,453.4029 Z M417.7678,452.34644L417.7678,472.99493L414.21432,471.4583C412.1975,470.59393,410.08463,469.7296,409.41235,469.44147C408.83615,469.24945,408.0678,467.9049,407.68362,466.5603C406.9153,463.48712,407.20346,436.9801,408.0678,435.8277C408.54797,435.0594,415.3668,431.98602,417.09552,431.79395C417.47968,431.69794,417.7678,441.0138,417.7678,452.34644 Z M318.5589,461.6623C318.46286,466.08008,318.27078,462.5266,318.27078,453.7871C318.27078,445.04742,318.46286,441.49396,318.5589,445.81573C318.75098,450.23364,318.75098,457.34058,318.5589,461.6623 Z M399.5203,453.3069C399.5203,468.09692,399.5203,468.193,397.40744,468.193C396.1589,468.193,389.72427,467.71277,383.00153,467.1366L370.7084,465.98407L370.7084,453.21088L370.7084,440.53363L376.7589,439.9574C380.02426,439.6692,384.0579,439.1891,385.59457,439.09296C387.22723,438.90088,390.97275,438.6128,394.04608,438.51678L399.5203,438.42078L399.5203,453.3069 Z M347.37076,440.3415L351.5005,440.34143L351.5005,453.69098L351.5005,466.94446L344.10544,467.61682C340.07178,467.9049,334.3094,468.193,331.1401,468.193L325.5698,468.19293L325.5698,453.69098L325.5698,439.09296L334.40543,439.76526C339.20743,440.0534,345.06583,440.3415,347.37076,440.3415 Z M364.94604,453.3069L364.94604,466.27216L361.58466,466.2721L358.22327,466.27216L358.22327,453.3069L358.22327,440.3415L361.58466,440.34143L364.94604,440.3415L364.94604,453.3069 Z M431.21332,493.16327L431.21332,505.64844L428.33218,505.64832L425.45096,505.64844L425.45096,493.16327L425.45096,480.6781L428.33218,480.6791L431.21332,480.6781L431.21332,493.16327 Z M445.6193,490.85834C447.44403,491.91473,451.0935,493.35535,453.5906,494.02765L458.20047,495.3722L456.08762,497.58118C453.39853,500.46234,454.83905,500.65442,457.8163,497.77325L460.0252,495.7564L460.12122,501.13464C460.21732,504.11182,460.31332,507.66528,460.31332,509.00983C460.31332,510.35443,460.21732,513.4276,460.12122,515.8287L460.0252,520.34247L456.2797,519.76624C451.4777,519.19,444.65887,515.73267,439.76086,511.60297C435.53513,507.95337,435.05496,506.60883,438.22427,506.51276C439.3767,506.51276,441.87378,505.8405,443.69852,505.0722C445.90744,504.20782,446.2916,503.82367,444.65887,504.11182C443.31436,504.3999,440.52917,504.88013,438.32028,505.26434L434.38266,505.8405L434.28665,494.9881C434.28665,488.93756,434.4787,483.65533,434.7668,483.27124C435.05496,482.79102,436.87967,483.94348,438.8005,485.67218C440.72128,487.49695,443.7945,489.898,445.6193,490.85834 Z M296.08563,507.56927C296.85394,507.56927,297.14206,509.00983,296.94998,511.79498C296.66187,515.44446,296.2777,515.9247,294.2609,515.9247C292.148,515.9247,291.95593,515.63654,291.95593,511.21875C291.95593,507.18506,292.24405,506.51276,293.49255,506.99298C294.35693,507.28107,295.5094,507.56927,296.08563,507.56927 Z M431.21332,511.21875C431.21332,515.63654,430.92526,516.11676,427.85196,515.44446C425.93115,515.1563,425.45096,514.48413,425.45096,511.98706C425.45096,508.24152,426.02716,507.56927,429.00443,507.56927C430.92526,507.56927,431.21332,508.0495,431.21332,511.21875 Z M445.90744,517.3653C449.65298,519.19,449.55695,521.20685,445.81134,519.47815C444.947,519.094,442.06583,518.3256,439.3767,517.7494C435.43912,516.8851,434.4787,516.30884,434.28665,514.48413C433.61435,509.77814,434.86285,509.10583,438.41635,512.27515C440.33713,513.90784,443.69852,516.21277,445.90744,517.3653 Z M264.58466,519.094C264.87277,519.57416,264.6807,520.05444,264.2005,520.05444C263.62424,520.05444,263.14404,519.57416,263.14404,519.094C263.14404,518.5177,263.33612,518.1336,263.5282,518.1336C263.81635,518.1336,264.29654,518.5177,264.58466,519.094 Z M287.7302,945.1257C287.34604,947.04645,286.7698,948.39105,286.4817,948.0069C286.19357,947.7188,286.2896,945.9902,286.57773,943.9732C286.96188,942.0524,287.53812,940.70795,287.82623,941.0921C288.11435,941.3802,288.0183,943.1088,287.7302,945.1257 Z"/> </g> </g> <g style="fill:rgb(0,0,0); fill-opacity:1.0; stroke-linejoin: miter"> <path d="M259.73096,498.7461L259.73096,498.7461L258.2646,493.8548C258.14624,493.46008,258.2956,493.0341,258.6345,492.79965L258.6345,492.79965C268.40997,486.03745,278.36288,479.1389,289.2652,476.37473L289.2652,476.37473C293.88672,475.20297,298.65417,474.77856,303.48492,474.77856L303.48492,474.77856C310.0763,474.77856,316.8286,475.56967,323.5167,476.35205L323.49332,476.3496L357.0153,479.4342C357.5383,479.48233,357.92325,479.94528,357.87512,480.4683C357.827,480.9913,357.36404,481.37625,356.84103,481.32812L356.84103,481.32812L323.31906,478.24353L323.2957,478.2411C316.58673,477.45627,309.9457,476.68048,303.48492,476.68048L303.48492,476.68048C298.76218,476.68048,294.1596,477.09592,289.7326,478.21835L289.7326,478.21835C279.22455,480.88257,269.5595,487.5549,259.71652,494.3638L260.08643,493.30865L261.5528,498.19995C261.7036,498.70303,261.41803,499.23312,260.91495,499.38394C260.41187,499.53476,259.88177,499.24918,259.73096,498.7461 Z"/> </g> <g style="fill:rgb(0,0,0); fill-opacity:1.0; stroke-linejoin: miter"> <path d="M288.897,504.00565C289.4222,504.00565,289.84796,504.4314,289.84796,504.9566C289.84796,505.4818,289.4222,505.90756,288.897,505.90756C288.3718,505.90756,287.94604,505.4818,287.94604,504.9566C287.94604,504.4314,288.3718,504.00565,288.897,504.00565 Z"/> </g> <g style="fill:rgb(0,0,0); fill-opacity:1.0; stroke-linejoin: miter"> <path d="M429.76328,479.6688L429.76328,479.6688L434.25986,478.6105C434.33124,478.5937,434.4044,478.58524,434.47772,478.58524L434.47772,478.58524L434.47772,478.58524L434.69287,480.4625C434.70715,480.45917,434.68015,480.46548,434.68143,480.46518L434.68164,480.46515L430.199,481.52017L429.76328,479.6688 M430.199,481.52017C429.68777,481.6405,429.17578,481.32358,429.05545,480.81235C428.93512,480.30112,429.25204,479.78912,429.76328,479.6688L429.76328,479.6688L434.2459,478.61377L434.24612,478.61374C434.25537,478.61157,434.25882,478.61078,434.26257,478.6099C435.00293,478.58524,435.42868,479.011,435.42868,479.5362C435.42868,480.0614,435.00293,480.48715,434.47772,480.48715L434.47772,480.48715L434.47772,480.48715L434.6956,480.46188L430.199,481.52017 Z"/> </g> <g style="fill:rgb(0,0,0); fill-opacity:1.0; stroke-linejoin: miter"> <path d="M432.43076,506.28238L432.43076,506.28238C438.0932,505.13953,443.61307,504.02087,447.95654,502.10196L447.95654,502.10196C452.26962,500.1965,455.45358,497.48563,458.74466,494.6764L458.76654,494.65826L461.8091,492.2144C462.2186,491.8855,462.81717,491.9508,463.14606,492.3603C463.47495,492.76978,463.40964,493.36835,463.00015,493.69724L463.00015,493.69724L459.95758,496.1411L459.97946,496.123C456.70624,498.917,453.32687,501.80872,448.72516,503.8417L448.72516,503.8417C444.15353,505.8614,438.41003,507.01584,432.80704,508.1467C432.2922,508.2506,431.79065,507.9175,431.68674,507.40268C431.58282,506.88785,431.91592,506.3863,432.43076,506.28238 Z"/> </g> <g style="fill:rgb(0,0,0); fill-opacity:1.0; stroke-linejoin: miter"> </g> <g style="fill:rgb(0,0,0); fill-opacity:1.0; stroke-linejoin: miter"> <path d="M289.10275,916.5375L289.10275,916.5375L289.0861,925.7314L289.08575,925.75543Q289.00363,928.7827,288.8944,929.95306L288.8965,929.9267Q288.8168,931.14685,288.5149,933.7252L288.5169,933.7065Q288.4018,934.8925,287.60986,939.9999L287.61337,939.97534Q287.4413,941.31525,287.33472,942.6691L287.33475,942.6689Q287.0697,946.04517,287.03967,952.5315L287.03906,952.56165Q286.9881,953.9642,286.86887,955.2443L286.86755,955.25745L286.86737,955.25916L286.86575,955.2733Q286.5335,957.98926,285.80014,964.8063L285.79745,964.8286Q285.50067,967.0834,285.06677,969.255C284.96387,969.77,284.46292,970.1041,283.9479,970.0012C283.4329,969.8983,283.09882,969.39734,283.20172,968.8823L283.20172,968.8823Q283.62317,966.77295,283.91177,964.58044L283.9091,964.6028Q284.6438,957.7732,284.97787,955.04236L284.97626,955.0565L284.97644,955.0548L284.97513,955.06793Q285.08936,953.8416,285.13837,952.49255L285.13776,952.5227Q285.1681,945.96606,285.43863,942.5201L285.43866,942.51984Q285.54898,941.11835,285.7269,939.73303L285.7304,939.7085Q286.51392,934.6557,286.62384,933.52277L286.62585,933.504Q286.9221,930.974,286.99863,929.8027L287.00073,929.7763Q287.1041,928.66895,287.1845,925.7039L287.18417,925.72797L287.20084,916.53406C287.20178,916.00885,287.6283,915.5838,288.1535,915.5848C288.6787,915.58575,289.1037,916.01227,289.10275,916.5375 Z"/> </g> <g style="fill:rgb(0,0,0); fill-opacity:1.0; stroke-linejoin: miter"> <path d="M304.0201,842.7045C301.8207,842.7045,299.80515,844.1669,299.199,846.39105Q291.3222,875.2942,290.01294,885.8493L290.01004,885.8493Q288.66635,893.98083,287.57367,902.7715L287.57098,902.79364L281.05508,957.19836L281.04877,957.25354Q280.53702,961.9691,278.67596,970.15173C278.06354,972.8444,279.7499,975.5237,282.44257,976.1361C282.8158,976.221,283.18875,976.2617,283.556,976.2617C285.83826,976.2617,287.8994,974.68896,288.42694,972.3695Q290.40594,963.66833,290.9844,958.3876L290.9841,958.3876L297.5,903.98285L297.50006,903.98285Q298.57825,895.3125,299.9039,887.31256C299.9152,887.24445,299.92508,887.176,299.93353,887.1075Q301.1465,877.27716,308.84714,849.02045C309.5732,846.3562,308.002,843.6078,305.33777,842.8817C304.89767,842.7618,304.4553,842.7045,304.0201,842.7045 Z"/> </g> </g> </svg>